<?xml version="1.0" encoding="utf-8"?>
<!-- Generator: Adobe Illustrator 22.0.1, SVG Export Plug-In . SVG Version: 6.00 Build 0)  -->
<svg version="1.1" id="Слой_1" xmlns="http://www.w3.org/2000/svg" xmlns:xlink="http://www.w3.org/1999/xlink" x="0px" y="0px"
	 width="22px" height="14.5px" viewBox="0 0 22 14.5" style="enable-background:new 0 0 22 14.5;" xml:space="preserve">
<style type="text/css">
	.st0{fill:#333333;}
</style>
<g>
	<path class="st0" d="M21,12.5H1c-0.552,0-1,0.447-1,1s0.448,1,1,1h20c0.553,0,1-0.447,1-1S21.553,12.5,21,12.5z"/>
	<path class="st0" d="M21,6.25H1c-0.552,0-1,0.447-1,1s0.448,1,1,1h20c0.553,0,1-0.447,1-1S21.553,6.25,21,6.25z"/>
	<path class="st0" d="M1,2h20c0.553,0,1-0.448,1-1s-0.447-1-1-1H1C0.448,0,0,0.448,0,1S0.448,2,1,2z"/>
</g>
</svg>
